<svg xmlns="http://www.w3.org/2000/svg" viewBox="0 0 512 512" role="img" aria-label="Transmission Web">
  <defs>
    <linearGradient id="bg" x1="80" x2="432" y1="54" y2="458" gradientUnits="userSpaceOnUse">
      <stop offset="0" stop-color="#26313d"/>
      <stop offset="0.56" stop-color="#111827"/>
      <stop offset="1" stop-color="#070b12"/>
    </linearGradient>
    <linearGradient id="arrow" x1="256" x2="256" y1="102" y2="379" gradientUnits="userSpaceOnUse">
      <stop offset="0" stop-color="#ff6b57"/>
      <stop offset="0.52" stop-color="#e93026"/>
      <stop offset="1" stop-color="#b91420"/>
    </linearGradient>
    <linearGradient id="tray" x1="124" x2="388" y1="324" y2="414" gradientUnits="userSpaceOnUse">
      <stop offset="0" stop-color="#f8fafc"/>
      <stop offset="1" stop-color="#cbd5e1"/>
    </linearGradient>
    <filter id="softShadow" x="-20%" y="-20%" width="140%" height="140%" color-interpolation-filters="sRGB">
      <feDropShadow dx="0" dy="18" stdDeviation="18" flood-color="#000" flood-opacity="0.34"/>
    </filter>
    <filter id="arrowShadow" x="-20%" y="-20%" width="140%" height="140%" color-interpolation-filters="sRGB">
      <feDropShadow dx="0" dy="12" stdDeviation="10" flood-color="#090b12" flood-opacity="0.38"/>
    </filter>
  </defs>

  <rect width="512" height="512" rx="112" fill="url(#bg)"/>
  <path
    fill="none"
    stroke="#ffffff"
    stroke-linecap="round"
    stroke-opacity="0.12"
    stroke-width="18"
    d="M108 169c54-43 121-64 190-53 44 7 82 25 115 52"
  />
  <path
    fill="none"
    stroke="#ff5948"
    stroke-linecap="round"
    stroke-opacity="0.34"
    stroke-width="18"
    d="M96 215c75-62 181-73 268-25 22 12 42 28 59 47"
  />
  <path
    fill="none"
    stroke="#ffffff"
    stroke-linecap="round"
    stroke-opacity="0.1"
    stroke-width="14"
    d="M104 272c43-34 93-51 148-51 62 0 118 23 161 62"
  />

  <g filter="url(#softShadow)">
    <path
      fill="url(#tray)"
      d="M126 333c0-15 12-27 27-27h206c15 0 27 12 27 27v48c0 22-18 40-40 40H166c-22 0-40-18-40-40z"
    />
    <path fill="#0f172a" fill-opacity="0.18" d="M156 337h200c8 0 14 6 14 14v15H142v-15c0-8 6-14 14-14z"/>
  </g>

  <path
    fill="url(#arrow)"
    filter="url(#arrowShadow)"
    d="M229 91c0-15 12-27 27-27s27 12 27 27v161l49-49c11-11 28-11 38 0 11 10 11 27 0 38l-95 96c-10 10-28 10-38 0l-95-96c-11-11-11-28 0-38 10-11 27-11 38 0l49 49z"
  />
  <path
    fill="#fff"
    fill-opacity="0.28"
    d="M256 82c7 0 13 6 13 13v170c0 5 3 10 8 12 5 3 11 1 15-3l56-56c5-5 13-5 18 0 5 5 5 13 0 18l-95 95c-8 8-22 8-30 0l-95-95c-5-5-5-13 0-18s13-5 18 0l56 56c4 4 10 6 15 3 5-2 8-7 8-12V95c0-7 6-13 13-13z"
  />
  <circle cx="365" cy="365" r="11" fill="#ef4444"/>
  <circle cx="399" cy="365" r="11" fill="#22c55e"/>
</svg>
